<svg xmlns="http://www.w3.org/2000/svg" id="svg2" viewBox="0 0 307.2019 88.626498" height="94.535" width="327.682"><g transform="translate(10.744 -550.906)" id="layer1"><g transform="translate(-13.342 523.306)" id="g4139"><g id="g4141"><g id="g4143"><path style="fill:#000c2c" class="st0" d="M290.4 51.3h-4.6v16.8h-13.5v8.4h13.5v17h10.1v-37c0-.1 0-5.2-5.5-5.2" id="path4145"/><path style="fill:#000c2c" class="st0" d="M264.9 51.3h-4.2v42.1h10.1V56.9c0-5.6-5.9-5.6-5.9-5.6" id="path4147"/><path style="fill:#000c2c" class="st0" d="M149.5 51.3c-4 0-5.5 4.2-5.5 4.2l-14.3 36.9-.4 1.1h10.1L149.8 66l5.2 13.6h-8.6l-3.2 8.3h15l2 5.5h10.2l-16.2-42.1h-4.7z" id="path4149"/><path style="fill:#000c2c" class="st0" d="M131.7 82.3c-2.3 1.8-5 2.8-8 2.8-7 0-12.7-5.7-12.7-12.7 0-7 5.7-12.7 12.7-12.7 3.1 0 4.4.8 4.4.8 2.2 1.3 5.3.8 6.9-1.1l2.7-3.2c-3.9-3.4-8.9-5.2-14-5.2-11.9 0-21.5 9.6-21.5 21.5S111.8 94 123.7 94c1.2 0 2.4-.1 3.6-.3.1-.3.3-.9.5-1.2.1-.3 1-2.4 1.9-4.8l2-5.4z" id="path4151"/><path style="fill:#000c2c" class="st0" d="M242.6 51.3h-22c-4.1 0-5.6 4.2-5.6 4.2L206.6 72l-8.3-16.5s-2-4.2-6.6-4.2h-35.5l3.2 8.3H172.5v33.8h10V59.6h7.2L201 82c.8 1.2.2 3.1-2.9 3.1h-5.6v8.3h5.6c2.9 0 5 .2 7-1 2.1-1 3.7-3.7 5.8-7.7l12.7-24.6v33.3h10.1V59.6h8.2c4.1 0 7.4 3.3 7.4 7.4 0 4.1-3.3 7.4-7.4 7.4h-6.6v8.3h7.4c8.7 0 15.7-7.1 15.7-15.7-.1-8.7-7.1-15.7-15.8-15.7" id="path4153"/><path style="fill:#ed1c24" class="st1" d="M80.2 50.6c-3.5 0-6.3.8-6.3 1.8L73.8 66c0 1 2.8 1.8 6.3 1.8s6.3-.8 6.3-1.8l.1-13.5c0-1.1-2.9-1.9-6.3-1.9m4.6 2.6V60.9c0 .4-.2.8-.6.9-.3.1-.5-.2-.5-.6v-2.7c0-.4-.2-.6-.6-.5-.3.1-.5.5-.5.9v.1c0 .4-.2.8-.6.9-.3.1-.6-.2-.6-.6v-4.9l-.7-.4H80c-3 0-5.5-.6-5.5-1.5 0-.8 2.5-1.5 5.5-1.5s5.5.6 5.5 1.5c.2.2-.1.5-.7.7" id="path4155"/><path style="fill:#ed1c24" class="st1" d="M30 60V48.8s-.1-.5-.8-.6C28.5 48 18.6 45 18.6 45s-.2-.1-.7.1c-.5.2-9.1 3.2-9.1 3.2s-.4.1-.4.8c0 .6-.2 11-.2 11l-3.9 2.3-.1 4.3 1.6.5 3.3-2 2.2.7v3l1.6.5 3.2-2.1 2.9.7v3l1.6.5L32.3 65l.1-4.4L30 60zM9.4 48.4c.6-.2 8.5-3 8.5-3s.3-.2.6-.1 9.9 2.9 9.9 2.9.2.1-.1.2c-.3.2-7.1 3.2-7.1 3.2s-.4.2-.8.1-11.1-3.1-11.1-3.1-.4 0 .1-.2m-.6 1.2c0-.3.3-.3.3-.3l11.5 3.3s.5.2.5.4c0 .3-.2.3-.2.3L8.8 49.8v-.2zm0 1.8c0-.3.3-.3.3-.3l11.5 3.3s.5.2.5.5-.2.3-.2.3L8.8 51.6v-.2zm0 1.8c0-.4.3-.3.3-.3l11.5 3.3s.5.2.5.5-.2.3-.2.3L8.8 53.4v-.2zM8.7 55c0-.4.3-.3.3-.3L20.6 58s.5.2.5.5-.2.3-.2.3L8.7 55.2V55zm0 1.8c0-.3.3-.3.3-.3l11.5 3.3s.5.2.5.5-.2.3-.2.3L8.7 57v-.2zm0 1.8c0-.4.3-.3.3-.3l11.5 3.3s.5.2.5.5-.2.3-.2.3L8.7 58.8v-.2zm0 1.6c0-.4.3-.3.3-.3l11.5 3.3s.5.2.5.4c0 .3-.2.3-.2.3L8.7 60.4v-.2zm-1.9 5.5v-1.4l1.5.5-1.5.9zm7.1 2.1v-1.4l1.4.5-1.4.9zm7.9 2.3v-2.3l2.8-1.6.1 1 1.3.3-4.2 2.6zm5.6-3.2v-2.2l2.2-1.2v1.2H31l-3.6 2.2zm-6.8-.2l-15-4.4L8 60.9l13 3.8 8.4-4.5 2.2.5-11 6z" id="path4157"/><path style="fill:#000c2c" transform="rotate(-90.727 19.724 39.478) scale(.99998)" class="st0" id="rect4159" d="M18.2 39.1h3v.8h-3z"/><path style="fill:#000c2c" transform="rotate(-90.727 18.74 39.49) scale(.99998)" class="st0" id="rect4161" d="M17.3 39.2h3v.7h-3z"/><path style="fill:#000c2c" class="st0" id="polygon4163" d="M17.8 40.5l.4.5v-3l-.5.5z"/><path style="fill:#000c2c" class="st0" d="M26.3 43.3c2.1 0 3.8-1.8 3.8-4s-1.8-3.9-3.9-3.9c-.4 0-.9.1-1.3.2h-.1c-.1 0-.1 0-.2.1-.6.3-1.9.8-2.9 1.3-1.3.6-1.2 1.3-1.2 2.2v.2c0 .9 0 1.7 1.3 2.2 1 .4 2.3 1 2.9 1.2.1 0 .1.1.2.1h.1c.4.4.9.4 1.3.4" id="path4165"/><path style="fill:#ed1c24" class="st1" d="M57.5 81.3h.2c.1 0 .1 0 .2-.1.1 0 .1 0 .2-.1.1 0 .1-.1.2-.1s.1-.1.2-.1c.1-.1.2-.2.3-.2l.3-.3c.1-.1.2-.2.2-.3.3-.5.5-1 .5-1.6 0-1.7-1.4-3.1-3.1-3.1h-11-.1-.8c-.8-.1-1.9.4-2 .6-.2.1-.3.3-.3.5v.3h-.1v-.3s0-.2-.1-.2h-.5c-.9 0-2 .1-3 .3-.4.1-.7.3-.7.4v.3c-.1 0-.4.1-.5.2-.1 0-.1.1-.1.1v.1c-.1 0-.3.1-.4.1v.5c.1.1.2.1.4.1v.1c0 .1 0 .1.1.1s.4.2.5.3v.4c0 .2.3.3.7.4 1 .3 2.1.4 3 .4h.4c.2 0 .2-.2.2-.2v-.2h.1v.4c0 1.2 3.1 1.3 3.1 1.3 0 .4.4.4.4.4h.7c1.7.9.6 2.5 1.3 2.6.3 0 .6.1.8.1 0 .1.1.1.1.1.9.2 1.2.7 1.4 1.5 0 1.2.6 2.7.6 2.7 0 .1 0 .3.1.5-1.8.1-2.1.5-2.1.9l.3 3.6c0 .5.5.7 2.9.7s5.4-.4 5.4-.9l.2-3.5c0-.2-.3-.4-.8-.5l-.1-.8-.4-2.1-.8-3.8c-.4-1.6.5-1.2 1.2-1.3.1 0 .2-.1.2-.1.2-.1.5-.2.5-.2" id="path4167"/><path style="fill:#000c2c" class="st0" d="M42.3 115.9s13.5 2 16.4-3.9c1.4-2.8 1.7-5 3.3-5.8.4-.2.7-.3 1-.3.5 0 1-.5 1-1.2 0-.6-.9-1.1-1.9-1.1l-23.7.1c-1 0-1.9.5-1.9 1.1 0 .6.1 1.1.3 1.1.1 0 .6.8.8 2.2.2 1.4.9 6.1 4.7 7.8" id="path4169"/><path style="fill:#000c2c" class="st0" d="M25.2 90.4c0 .3.2.6.5.6h14.8c.3 0 .5-.3.5-.6v-6.3c0-.3-.2-.6-.5-.6H25.7c-.3 0-.5.3-.5.6v6.3z" id="path4171"/><path style="fill:#000c2c" class="st0" d="M32.6 99.1h.6v-1.5c0-.9-.3-1.5-.9-1.8-.5-.3-6.1-3.3-7-3.7-.8-.4-1-.7-1-1.1l.3-2.6c0-.4.2-.8.5-.8h.5V87h-.5c-.7 0-1.1.7-1.1 1.4l-.3 2.6c0 .8.5 1.2 1.3 1.6.8.4 6.4 3.3 6.9 3.7.4.2.6.7.6 1.3l.1 1.5z" id="path4173"/><path style="fill:#000c2c" class="st0" d="M31.4 99.4c0-.3.2-.5.5-.5H34c.3 0 .5.2.5.5l.4 14.1c0 .3-.2.5-.5.5h-2.9c-.3 0-.5-.2-.5-.5l.4-14.1z" id="path4175"/><path style="fill:#ed1c24" class="st1" d="M17 95.9c-.4.1-.7 0-1.1-.4l-.9-.9-.3.4.9.8c.5.5 1.1.6 1.6.5" id="path4177"/><path style="fill:#ed1c24" class="st1" d="M15.4 93.7c.2.1.2.4 0 .5l-1.1 1.2c-.1.2-.4.2-.6 0l-7.4-6.1c-.2-.2-.2-.4 0-.6L7.8 87c.1-.2.4-.2.5 0l7.1 6.7z" id="path4179"/><path style="fill:#ed1c24" class="st1" d="M16.7 104c-3.1-3.4-1.9-5.9.5-8.1 2.4-2.2 5-3.2 8.1.1 3.1 3.4 4.1 11.1 3.1 12-1 1-8.7-.6-11.7-4" id="path4181"/><path style="fill:#000c2c" class="st0" d="M21.6 85.4l-3.5-2-3.5 2v4l3.5 2 3.5-2v-4zm-4.3 3.4c-.8-.5-1-1.5-.6-2.2.4-.8 1.4-1 2.2-.6.8.5 1 1.5.6 2.2-.4.8-1.4 1.1-2.2.6" id="path4183"/><path style="fill:#000c2c" class="st0" d="M9.7 72.6c.5.2.4.5.4.5l.5 4.4-2 3.4s-.2.4-.3.4c-.1.2-.5.2-1.2-.1-1.2-.5-2.8-.4-3.2-.6-.4-.2-.1-.6.1-.8.5-.5-.1-1.1-.3-1.8-.2-.8-.6-2.5-.4-3.1.2-.6.1-1-.3-1.4-.4-.4-.9-1.6.7-1.1 1.7.4 3.9-.5 6 .2M6 74.1c.1.2.3.4.2.8-.1.4-.3.8-.1 1 .1.2.1.7 0 .9-.1.3 0 .5 0 .8.1.5-.3.6-.3 1.1 0 .5.3.8.8.9.5.1.7.1.8.2.1 0 .3 0 .3-.5v-4.6c0-.6-.1-.7-.6-.8-.6-.1-.8-.1-.9-.1-.2-.1-.3.1-.2.3" id="path4185"/><path style="fill:#000c2c" class="st0" d="M35.7 29.3c-.1 0-.2-.1-.3-.1h-.2s-.1.1-.2.1-.1.1 0 .2c.1.4.5 1.1.6 1.6.1.5.1.6-.2.9-.1.1-.2.1-.3.2-.2.1-.5.2-.8.2h-.4c-.4 0-.9 0-1.2-.3-.2-.2-.7-2-.8-2.1h-.1s-.1.1-.2.1l-.1.1c-1.1 1.8-.4 2.8 0 3.4.7.8 1.2 1.5 1.2 1.5s.4.6.4 1.1c0 .5.2 14.6.1 15.1 0 .5-.2.9-.5 1.3-.2.3-.4.6-.7 1-.1.2-.4.5-.4 1.1 0 .4.2.7.5 1.1.4.4.6.7 1.3 1.1l.1.1h.2s.1-.1.2-.1v-.1c0-.3-.4-1.1-.6-1.5V55c.1-.1.2-.3.3-.4.6-.3 1.5-.5 2.1-.2 0 0 .1 0 .1.1l.1.1c.3.8.4 1.3.6 1.5 0 0 .1.1.2 0 .1 0 .2-.1.2-.1.1 0 .1-.1.2-.1 1.3-1.8-.3-3.1-.7-3.8-.4-.5-.4-.7-.5-1.2-.1-.5-.2-14.4-.3-14.8 0-.4 0-.7.2-1 .3-.8.5-.8.9-1.4.3-.4 1.5-1.3.4-2.9-.2-.6-1-1.3-1.4-1.5" id="path4187"/><path style="fill:#000c2c" class="st0" d="M51.3 67.8c0-.1 0-.2.1-.3 0-.1 0-.1-.1-.1.1-.3.1-.5.1-.7v-.2s.1 0 .1-.1v-.3c0-.1 0-.1-.1-.1v-.9l.1-.1v-.1-.3c0-.1 0-.1-.1-.1v-.9-.3c0-.1-.1-.1-.1-.1 0-.3-.1-.6-.1-.9V62c0-.1-.1-.1-.1-.1 0-.3-.1-.6-.1-.9 0-.1 0-.2-.1-.3 0-.1-.1-.1-.1-.1-.1-.3-.1-.6-.2-.9 0-.1 0-.2-.1-.3 0-.1-.1-.1-.1-.1-.1-.3-.1-.6-.2-.9 0-.1-.1-.2-.1-.3 0-.1-.1-.1-.1-.1-.1-.2-.1-.4-.2-.6v-.1c-.2-.8-.5-1.5-.8-2.3-.1-.3 0-.8.2-1 .1-.1.2-.1.3-.2.2-.2.4-.4.4-.6v-.1c-.1-.1-.3-.2-.5-.1-.2 0-.5 0-.8.1-.3.1-.5.1-.7.2v-1.7l-.4-.1c.1-.2.1-.4.1-.7v-.1c0-.2 0-.5-.1-.7l.4-.1v-.1-2.9c0-.3-.1-.6-.1-.6L46 42.2l-.9-.1-.8.1h-.1l-1.8 3.5s-.1.2-.1.5v3.1h.1l.3.1c-.1.2-.1.4-.1.7v.1c0 .2 0 .5.1.7l-.4.1V52.7c-.2-.1-.5-.1-.7-.2-.3-.1-.6-.1-.8-.1-.2 0-.5 0-.5.1v.1c0 .2.2.4.4.6.1.1.2.1.3.2.3.2.4.7.3 1-.3.8-.5 1.5-.8 2.3v.1c-.1.2-.1.4-.2.6-.1 0-.1 0-.1.1s-.1.2-.1.3l.1.1c-.1.3-.1.6-.2.9-.1 0-.1.1-.1.1 0 .1 0 .2-.1.3-.1.3-.1.6-.2.9-.1 0-.1.1-.1.1v.3c0 .3-.1.6-.1.9-.1 0-.1.1-.1.1v.3c0 .3 0 .6-.1.9-.1 0-.1.1-.1.1V64c-.1 0-.1.1-.1.1v1.2c-.1 0-.1.1-.1.1v.3l.1.1v.2c0 .2.1.5.1.7-.1 0-.1.1-.1.1 0 .1 0 .2.1.3l.1.1c.4 1.2.8 2.4 1.3 3.5.2.3.6.5 1 .5.4-.1.9-.2 1.3-.3.2 0 .3-.1.4-.2l.1-.1c.1-.1.2-.3.1-.4 0-.3 0-.5-.1-.8 0-.3-.1-1-.1-1 0-.3-.1-.4-.2-.4h-.1c-.1-.1-.2-.3-.2-.6-.6-4.6.1-9.4 1.9-13.8.1-.3 0-.7-.4-.8v-1.4h1v1.4c-.3.1-.5.5-.4.8 2 4.4 2.7 9.1 2.2 13.8 0 .3-.1.5-.2.6h-.1c-.1 0-.2.2-.2.4v1.1c0 .3 0 .5-.1.8 0 .2 0 .3.1.4 0 0 0 .1.1.1.1.1.2.2.4.2.4.1.9.2 1.3.2.4.1.8-.1.9-.5.5-1.1.9-2.3 1.3-3.5.7.7.7.7.8.6zm-6.6-22.9v-.1-.1-.2l.1-.1V44.1 44h.1s.1 0 .1-.1l.1-.2h.2l.1.2s0 .1.1.1h.1v.4l.1.1v.5l-.1.1v.4h-.1s-.1 0-.1.1l-.1.2h-.1-.1l-.1-.3s0-.1-.1-.1h-.1V45.1 45l-.1-.1v.2-.2z" id="path4189"/><path style="clip-rule:evenodd;fill:#000c2c;fill-rule:evenodd" class="st2" d="M66.1 88.1V92c.1 0 .1.1.1.1v1.3s0 .1-.1.1c.1.4.2 1.7.5 2.3.4.8 1.3 1.3 2.5 1.3 1.4 0 3.7-1.1 4.2-1.9.3-.3.8-.1.8.2-1 1.8-3.3 3.6-5.3 4.5-2 .8-3.9 1-5.1 1.1H63l-.4-.2s-.1 0-.1-.1c-.3-.2-.9-.5-2.1-.6h-.3c0 .3-.1.5-.2.5l-2.7-.1c-.1 0-.2-.9-.3-2 0-1.1.1-2.1.2-2.1s2.8.1 2.8.1c.1 0 .1.2.2.5 3.1-.1 3.4-3.6 3.4-3.6h-.1V92s0-.1.1-.1V88l-.5-1.2c-.3-5.2-.8-15.4-.8-15.5 0-.1 1.1-.5 2.4-.5 1.2 0 2.2.4 2.2.5 0 .1-.1 10.3-.3 15.5l-.4 1.3z" id="path4191"/><path style="fill:#000c2c" class="st0" d="M55 52.9h.1l-.2 1.1h-.1v6.7h.1v.7l.1.1h-.1v.1c.3.3.6.8 0 1.3-.1.1-.1.1-.1.2v.2c.2 0 .5.1 1.3.1h.3l.1 6.4h-.2l-.3.7.4 1.7h1.1l.4-1.7-.2-.7h-.2l-.1-6.4h.7c.6 0 .7-.1.8-.1v-.2c0-.1-.1-.2-.1-.2-.6-.5-.3-1 0-1.3 0 0 0-.1.1-.1V60.7h.1V54h-.1V53.4l.1-.1c-.2-1-.4-1.3-.5-1.5 0-.1 0 0-.1-.1-.2 0-.7-.1-1.4-.1h-.1c-.6 0-1.1 0-1.3.1 0 0-.1 0-.1.1-.2.1-.4.4-.5 1.1" id="path4193"/><path style="fill:#ed1c24" transform="rotate(43.104 78.723 98.056)" class="st1" id="rect4195" d="M75.5 96.8H82v2.5h-6.5z"/><path style="fill:#ed1c24" class="st1" id="polygon4197" d="M73.3 106.4l.4-.5h-4.6l-.4.4z"/><path style="fill:#ed1c24" class="st1" id="polygon4199" d="M71.1 108.6l.5-.4h-3.5l.5.4z"/><path style="fill:#ed1c24" class="st1" id="polygon4201" d="M74.3 105.2l.5-.5h-4.6l-.5.5z"/><path style="fill:#ed1c24" class="st1" id="polygon4203" d="M72.2 107.5l.4-.5H68l-.4.5z"/><path style="fill:#ed1c24" class="st1" id="polygon4205" d="M75.4 104.1l.4-.5h-4.6l-.4.5z"/><path style="fill:#ed1c24" class="st1" id="polygon4207" d="M70.5 109.3h-1.2l.6.6z"/><path style="fill:#ed1c24" class="st1" id="polygon4209" d="M78.8 100.4l-2.5-2.3-3.4 3.7h4.6z"/><path style="fill:#ed1c24" class="st1" id="polygon4211" d="M76.5 102.9l.4-.4h-4.6l-.4.4z"/><path style="fill:#000c2c" class="st0" d="M39.6 103.1v-5.6h3.9s-.2.9 1.3.6c1.5-.3 6-1.3 6-1.3s.4 0 .5.5c.1.3.2 1.1.2 1.1l-4 .9s-2.1.4-3.2 1.8c-.8.9-.7 2.2-.7 2.2h-4z" id="path4213"/><path style="fill:#000c2c" class="st0" d="M39 97s-.3-1 .6-1.8c.9-.7 2.9-1.8 5.4-2.7 2.6-.8 2.7-.9 2.7-.9s.3.5-.7.8c-1 .3-4.2 1.5-4.2 2.5 0 .9 0 .8.1 1.9 0 0-1 .2-1.9.3-1.1.3-2-.1-2-.1" id="path4215"/><path style="fill:#000c2c" transform="rotate(-12.492 50.511 99.054)" class="st0" id="rect4217" d="M49.5 98.7h2v.6h-2z"/><path style="fill:#000c2c" class="st0" d="M73.1 43.6l-.1.1c-.2 0-.4-.1-.5-.1-1.2 1.2-2.9 2-4.7 1.9-3.5-.1-6.2-3.1-6.1-6.6.1-1.6.7-3.1 1.8-4.2-.1-.2-.1-.4-.1-.6l.1-.1c.3-.3 0-.5-.3-.2-1.4 1.3-2.3 3.1-2.4 5.1 0 1.3.3 2.6.9 3.7-.1.3-.2 1-.2 1-.2 1-3-.1-8.4.1-.1 0-.1-.1-.1-.1-.1 0-.1.1-.1.1-.1.4-.1 3 0 3.5 0 0 0 .1.1.1s.1 0 .1-.1c5.5.5 7.5-.3 8.3.3 0 0 .2.1.3.6v.2c0 .2.2.2.3.1 0-.1 0-.8.1-1.5h1.4c.4.3.8-.1 1.3.1v.2h-2v1.3l.1 1.3v-.6.9l.1 1.2.1 2.1s1.7 2.7 1.7 2.9c.1.4.2.5.2.6v.1c.3.2.5 1.2.5 1.2.2 2.1 1 5.7 2.1 8.2.1.3.3.6.4.9 0 0 .1.2.2.2h.2c.2.2.2.5.9.4v.2l.3.6.5-.2c-.1-.2-.2-.3-.3-.5v-.2c.1 0 .3-.1.4-.1h.2c.3 0 .6-.2.7-.3 0-.1.1-.1.1-.2v-.6s0-.1-.1-.1c-.4-.2-.8-.5-.9-.6 0 0-.1-.1-.1-.2-.1-.3-.3-1-.5-1.8l.1-.1v-.1h.1l.2-.1c.1-.1.2-.2.2-.4v-.1l-.1-.3v-.1l-.7-.7s0-.1-.1-.1v-.2-.1-.1s-.1-.2.2-.3c.1 0 .2-.1.4-.1.2-.1.2-.1.3-.4 0-.1.2-1.3.2-1.3.1-.5-.3-1.5-.4-3.1v-3.5-.1c0-2.2.1-4.1.3-4.5v-.1-2.2c1.2-.4 2.2-1.2 3-2.1.3-.3.1-.5-.2-.2m-11.3 1c0-.1.1-1.1.1-1.3.1.1.7.9 1.4 1.4l-1.5-.1z" id="path4219"/><path style="fill:#000c2c" class="st0" d="M73.8 40.1c-.2.1-.3.1-.4.1-.2 0-.2-.1-.3-.2v-.3l.6-.2.2-.4s0-.1-.1-.1c-.2.1-.3.2-.5.2-.1 0-.2 0-.2-.1v-.3l.6-.4.1-.4s0-.1-.1 0c-.2.2-.4.2-.5.2-.1 0-.1 0-.2-.1 0-.1 0-.2-.1-.3l.5-.4V37s0-.1-.1 0c-.2.2-.4.3-.5.3h-.1c0-.1-.1-.2-.1-.2l.4-.5v-.4h-.1c-.2.3-.4.4-.5.4h-.1c0-.1-.1-.2-.1-.2l.3-.6-.1-.4h-.1c-.1.4-.3.5-.5.5l-.2-.2.2-.6-.2-.4h-.1-.1c-.1.4-.2.6-.4.6l-.2-.2.1-.7-.1-.4h-.1-.1c0 .5-.2.6-.3.6-.1 0-.1-.1-.2-.1v-.7l-.3-.3h-.1c.1.5-.1.6-.2.7-.1 0-.1 0-.2-.1l-.1-.7-.4-.2h-.1c.2.5.1.6-.1.7h-.2l-.2-.6-.4-.2s-.1 0-.1.1c.3.4.2.6 0 .7h-.2l-.4-.6-.4-.1s-.1 0 0 .1c.3.4.3.6.2.7h-.2l-.5-.5h-.4s-.1 0 0 .1c.4.3.4.6.3.7-.1 0-.1 0-.2.1l-.5-.4H65s-.1.1 0 .1c.5.3.5.5.4.6-.1 0-.1.1-.2.1l-.6-.3-.6.2s-.1.1 0 .1c.5.2.5.4.5.6l-.1.1-.6-.2-.4.2v.1c.5.1.6.3.6.5l-.1.1-.8-.2-.4.3v.1h.1c.5 0 .5.2.5.4 0 .1-.1.1-.1.2h-.7l-.3.3v.1h.3c.3 0 .4.2.4.3 0 0 0 .1-.1.2l-.7.1-.1.2v.1c.2-.1.3-.1.4-.1.2 0 .3.1.3.2v.2l-.7.3v.4s0 .1.1.1c.2-.1.4-.2.5-.2.2 0 .2.1.3.2v.1l-.6.4-.1.4s0 .1.1 0c.2-.2.4-.2.5-.2.1 0 .2.1.2.1v.1l-.5.5v.4s0 .1.1 0c.2-.2.4-.3.5-.3.1 0 .2.1.2.1s0 .1.1.1l-.5.6v.4h.1c.2-.3.4-.4.5-.4.1 0 .1 0 .2.1l.1.1-.3.6.1.4h.1c.1-.4.3-.5.5-.5h.1l.1.1-.4.9.2.4h.1c.1-.5.3-.6.4-.6h.1l.1.1-.2.7.3.4h.2c0-.5.2-.6.4-.7 0 0 .1 0 .1.1v.7l.3.3h.1c-.1-.5.1-.7.2-.7h.2l.1.7.4.2h.1c-.2-.5 0-.7.1-.7h.2l.3.7.4.2s.1 0 0-.1c-.3-.5-.1-.7 0-.7h.2l.4.6h.3s.1 0 0-.1c-.3-.4-.3-.6-.1-.7h.2l.5.5h.4s.1 0 0-.1c-.4-.3-.4-.6-.3-.7.1 0 .1 0 .2-.1l.5.4h.4s.1 0 0-.1c-.4-.3-.4-.5-.4-.6.1 0 .1-.1.2-.1l.6.3.4-.1v-.1c-.5-.2-.5-.4-.5-.5l.2-.2.6.2.4-.2v-.1c-.5-.1-.6-.3-.6-.4.1-.1.1-.1.1-.2l.6.1.4-.3v-.1h-.1c-.4 0-.5-.2-.5-.3 0-.1.1-.1.1-.2h.7l.3-.3v-.1H73c-.2 0-.3-.1-.4-.2 0-.1.1-.2.1-.2l.7-.1.4-.3c0 .1 0 0 0 0" id="path4221"/><path style="fill:#000c2c" class="st0" d="M86.9 78.5c-.1-.1-.1-.1-.2-.1h-1.9v.9h.1v1.2h-1v.8h-.1c0-.5-.1-.9-.4-1.3v-.7-.1-.2c0-1-1.2-2.1-2.6-3-.3-.7-1.3-1.2-2.6-1.2s-2.4.5-2.6 1.2c-1.4.8-2.6 1.9-2.6 3v.9c-.3.4-.4.9-.4 1.3h-.1v-.8h-1v.8h-.6v-1.1s0-.1-.1-.1v-3.7c0-.2-.2-.4-.4-.4h-.1c-.2 0-.4.2-.4.4v4.9c-.2 0-.3.1-.3.3 0 .2.1.3.3.3v4.9c0 .2.2.4.4.4h.1c.2 0 .4-.2.4-.4V83c.1 0 .1 0 .1-.1V82h.6v11.9h1v-3.5l2.3-1.8H84.1v1.1c-.2 0-.4-.1-.6-.1-1.4 0-2.6 1.2-2.6 2.6 0 1.4 1.2 2.6 2.6 2.6 1.4 0 2.6-1.2 2.6-2.6 0-1.1-.6-2-1.6-2.4v-1.2h.2V85H90h-1.5 1.7v-4.9c-.1 0-3.3-1.6-3.3-1.6m-8.8-3c1.2 0 2.2.5 2.2 1.1 0 .6-1 1.1-2.2 1.1-1.2 0-2.2-.5-2.2-1.1 0-.6 1-1.1 2.2-1.1m5.8 12.2H72.3V82h.2c.1.3.2.6.4.9v.5c0 1.6 2.3 3.3 5.2 3.3 2.9 0 5.2-1.8 5.2-3.3v-.5c.2-.3.3-.5.4-.8h.2v5.6zm-.3 5.7c-.6 0-1-.5-1-1 0-.6.5-1 1-1 .6 0 1 .5 1 1s-.5 1-1 1" id="path4223"/><path style="fill:#000c2c" class="st0" d="M78.5 43.8c-1 0-1.9.8-1.9 1.9 0 1 .8 1.9 1.9 1.9 1 0 1.9-.8 1.9-1.9 0-1.1-.9-1.9-1.9-1.9" id="path4225"/><path style="fill:#000c2c" class="st0" d="M82.1 45.7V45l-.1-.3-.1-.3-.1-.3-.2-.3-.2-.3-.2-.2h-.1l-.1-.2V43l-.2-.2h-.1l-.2-.2v-.1l-.2-.1h-.1l-.2-.1-.2-.1-.2-.1-.3-.1H77.9l-.2.1v.1l-.2.1h-.1l-.2.1v.1l-.2.1h-.1l-.2.1v.1l-.1.1-.1.1v.1l-.2.2h-.1l-.2.2v.1l-.2.2h-.1l-.2.3v.1l-.1.3h-.1l-.3-.1v.4h-.1l-.1.3v.3h-.1v.7l.1.3.1.3v.1l.1.2h.1l.1.3.1.2h.1l.2.3.2.2h.1l.2.2v.1l.3.2.3.2v.1l.3.2.4.1v.1l.4.1H79l.4-.1.3-.1h.1l.3-.1.3-.1h.1l.2-.2v-.1l.2-.2.2-.2v-.1l.2-.2h.1l.2-.2v-.1l.1-.2.1-.3V47l.1-.3h.1l.1-.3.1-.3-.1-.4zM78.5 48c-1.3 0-2.3-1-2.3-2.3 0-1.3 1-2.3 2.3-2.3 1.3 0 2.3 1 2.3 2.3 0 1.3-1 2.3-2.3 2.3" id="path4227"/><path style="fill:#ed1c24" class="st1" id="rect4229" d="M49.5 33.4h8.9v5h-8.9z"/><path style="fill:#ed1c24" class="st1" id="rect4231" d="M39.3 33.4h9.3v5h-9.3z"/><path style="fill:#000c2c" class="st0" d="M90.9 69.3c-.9-1.3-2.3-1.3-3.2 0-.2.4-.4.8-.5 1.3-.8 0-1.6.1-2.4.1-.1-.2-.1-.3-.2-.4-.1-.2-.6-.9-.7-.9-.1 0-.8 1.1-1 1.4h-.8l-.9-1.3s-.6.9-.9 1.3h-1c-.1-.2-.5-.9-.7-1.2 0 0-.6.8-.8 1.2-.7.1-.8.1-.7.7v.3c-.1.6 0 .6.8.7.4 0 .8 0 1.1.1l.9 1.2c.1-.2.7-1.2.7-1.2s.9.1 1.1.1c.1.3.8 1.3.8 1.3s.7-.9.9-1.2h1c.2.4.8 1.4 1 1.4.1-.1.7-1 .9-1.3h.9c0 .1.1.1.1.2.1.3.2.7.4.9.9 1.3 2.3 1.3 3.2 0 .8-1.2.8-3.3 0-4.7m-.4 2.8h-.9v1.4c0 .3-.1.5-.3.5-.2 0-.3-.2-.3-.5v-1.4h-.9c-.2 0-.3-.2-.3-.5s.1-.5.3-.5h.9v-1.4c0-.3.1-.5.3-.5.2 0 .3.2.3.5v1.4h.9c.2 0 .3.2.3.5.1.3-.1.5-.3.5" id="path4233"/><path style="fill:#000c2c" class="st0" d="M33.9 75.7v-.2c0-.4-.1-1.6-.1-1.8 0-.4-.1-.6-.4-.6H10.5l.6 4.5s-1.8 3.2-2 3.4l.3.5.2.2c.3-.1.7.9.9.9.2 0 .1-1.1.4-1.2.3-.1.7.9.9.9.2 0 .1-1.1.4-1.2.3-.1.7.9.9.9.2 0 .1-1.1.4-1.2.3-.1.7.9.9.9.2 0 .1-1.1.4-1.2.3-.1.7.9.9.9.2 0 .1-1.1.4-1.2.3-.1.7.9.9.9.2 0 .1-1.1.4-1.2.3-.1.7.9.9.9.2 0 .1-1.1.4-1.2.3-.1.7.9.9.9.1 0 .1-1.1.4-1.2.3-.1.7.9.9.9.2 0 .1-1.1.4-1.2.3 0 .7 1 .8 1 .2 0 .1-1.1.4-1.2.3-.1.7.9.9.9.2 0 .1-1.1.4-1.2.3-.1.7.9.9.9.2 0 .1-1.1.4-1.2.3-.1.7.9.9.9.2 0 .1-1.1.4-1.2.3-.1.7.9.9.9.2 0 .1-1.1.4-1.2.3-.1.7.9.9.9.2 0 .1-1.1.4-1.2.3-.1.7.9.9.9.2 0 .1-1.1.4-1.2.3-.1.7.9.9.9.2 0 .1-1.1.4-1.2.3-.1.7.9.9.9.2 0 .1-1.1.4-1.2.3-.1.7.9.9.9.1 0 .1-.8.1-1.6m-1.3-1.3h-.7c-.2 0-.3-.2-.3-.3 0-.2.2-.3.3-.3h.7c.2 0 .3.2.3.3.1.1-.1.3-.3.3" id="path4235"/></g><path style="fill:#ed1c24" class="st1" id="rect4237" d="M45.5 27.6h9.3v5h-9.3z"/></g><g id="g4239"><g id="g4241"><path style="fill:#000c2c" class="st0" d="M302.9 53.2h2c1.1 0 2.2.4 2.2 1.7 0 .8-.5 1.4-1.3 1.6l1.6 2.6h-1.3l-1.4-2.5h-.7v2.5h-1v-5.9zm1.9 2.5c.6 0 1.3-.1 1.3-.9 0-.6-.6-.8-1.2-.8h-.9v1.7h.8z" id="path4243"/></g><g id="g4245"><path style="fill:#000c2c" class="st0" d="M304.9 61.2c-2.7 0-4.9-2.2-4.9-4.9s2.2-4.9 4.9-4.9 4.9 2.2 4.9 4.9-2.2 4.9-4.9 4.9zm0-9.2c-2.3 0-4.2 1.9-4.2 4.2 0 2.3 1.9 4.2 4.2 4.2 2.3 0 4.2-1.9 4.2-4.2 0-2.3-1.9-4.2-4.2-4.2z" id="path4247"/></g></g></g></g><style id="style4137">.st0{fill:#000c2c}.st1{fill:#ed1c24}.st2{fill-rule:evenodd;clip-rule:evenodd;fill:#000c2c}</style></svg>